<svg width="120" height="48" viewBox="0 0 120 48" fill="none" xmlns="http://www.w3.org/2000/svg">
<g clip-path="url(#clip0_207_12130)">
<path d="M4.36986 10.0044H0V14.1926H4.3628V38.5698H8.95133V14.1926H15.7477V10.0044H8.95838C9.01129 7.97741 9.39925 6.48716 10.1152 5.57253C10.8594 4.61906 12.1608 4.13879 13.9666 4.13525L15.7477 4.20588V0H15.2539C8.2001 0 4.53915 3.36541 4.36986 10.0044Z" fill="#FFB900"/>
<path d="M119.988 10.0786H115.805V38.4074H119.988V10.0786Z" fill="#FFB900"/>
<path d="M120.001 1.17944H115.793V6.2823H120.001V1.17944Z" fill="#FFB900"/>
<path d="M106.413 1.17944V14.129C105.319 12.9813 104.007 12.0526 102.498 11.3569C100.583 10.4741 98.5019 10.0256 96.3082 10.0256C92.5132 10.0256 89.1168 11.3852 86.2106 14.0619C83.2903 16.7493 81.8125 19.9805 81.8125 23.6673C81.8125 28.5124 83.2691 32.3086 86.1365 34.9466C88.7394 37.3514 92.2099 38.5698 96.4528 38.5698C98.4913 38.5698 100.463 38.1036 102.315 37.1855C103.813 36.4439 105.185 35.3668 106.413 33.9825V38.5698H110.416V1.17944H106.413ZM103.447 31.6271C101.44 33.6364 98.971 34.657 96.1106 34.657C93.2503 34.657 90.785 33.6364 88.7746 31.6271C86.7678 29.6177 85.7485 27.1457 85.7485 24.2818C85.7485 21.4178 86.7749 18.9388 88.7993 16.9118C90.8238 14.8848 93.2821 13.8571 96.1106 13.8571C99.0027 13.8571 101.479 14.8848 103.468 16.9082C105.461 18.9353 106.469 21.4178 106.469 24.2818C106.473 27.1457 105.457 29.6177 103.447 31.6271Z" fill="#FFB900"/>
<path d="M69.6676 18.8258C68.1969 17.3532 66.2394 16.541 64.1621 16.541C62.0812 16.541 60.1273 17.3532 58.653 18.8258C57.1823 20.2984 56.3711 22.2583 56.3711 24.3419C56.3711 26.4254 57.1823 28.3818 58.653 29.8543C61.6897 32.8949 66.6309 32.8949 69.6676 29.8543C72.7043 26.8138 72.7043 21.8663 69.6676 18.8258Z" fill="#6F00FF"/>
<path d="M74.1794 14.3092C68.6563 8.77908 59.6662 8.77908 54.1395 14.3092C51.4625 16.9896 49.9883 20.5527 49.9883 24.3419C49.9883 28.1311 51.4625 31.6943 54.1395 34.3746C56.9011 37.1397 60.5303 38.524 64.1595 38.524C67.7887 38.524 71.4179 37.1397 74.1794 34.3746C79.7061 28.8409 79.7061 19.8429 74.1794 14.3092ZM64.163 34.3499C61.4931 34.3499 58.9819 33.3081 57.095 31.4188C55.2081 29.5295 54.1677 27.0152 54.1677 24.3419C54.1677 21.6686 55.2081 19.1543 57.095 17.265C58.9819 15.3757 61.4931 14.334 64.163 14.334C66.8329 14.334 69.344 15.3757 71.2309 17.265C73.1178 19.1543 74.1583 21.6686 74.1583 24.3419C74.1583 27.0152 73.1178 29.5295 71.2309 31.4188C69.3405 33.3081 66.8293 34.3499 64.163 34.3499Z" fill="#FFB900"/>
<path d="M42.3981 14.3307C38.5044 10.432 32.8966 9.26668 27.9766 10.8417L29.1616 14.8639C30.1703 14.5284 31.239 14.3554 32.3323 14.3554C35.0128 14.3554 37.5345 15.4007 39.432 17.3006C41.3295 19.2005 42.3735 21.7254 42.3735 24.4093C42.3735 27.0931 41.3295 29.6181 39.432 31.518C37.5345 33.4178 35.0128 34.4631 32.3323 34.4631C29.6519 34.4631 27.1301 33.4178 25.2326 31.518C23.3351 29.6181 22.2912 27.0931 22.2912 24.4093C22.2912 21.8525 23.2399 19.4406 24.9681 17.576L22.0408 14.5638C19.4978 17.2264 18.0977 20.7119 18.0977 24.4093C18.0977 28.2161 19.579 31.7934 22.2665 34.4878C25.0422 37.267 28.6855 38.6549 32.3323 38.6549C35.9756 38.6549 39.6225 37.267 42.3981 34.4878C47.946 28.9294 47.946 19.8856 42.3981 14.3307Z" fill="#FFB900"/>
<path d="M37.8008 18.8258C36.3301 17.3532 34.3726 16.541 32.2953 16.541C31.2195 16.541 30.1756 16.76 29.2163 17.1731L29.4138 17.5404C30.7399 17.272 32.1542 17.8123 32.9372 19.0165C32.9618 19.0554 36.5699 24.6067 36.5699 24.6067L35.3425 25.4048L31.7803 19.9311L30.8175 20.5597L34.3726 26.0334L33.0571 26.8915L29.4984 21.4179L28.5356 22.0464L32.0977 27.5201L30.8704 28.3182C30.8704 28.3182 27.2659 22.7669 27.2412 22.728C26.4582 21.5238 26.5358 20.0088 27.3223 18.9035L27.0648 18.5645C26.9731 18.6493 26.8814 18.7375 26.7897 18.8258C25.319 20.2984 24.5078 22.2583 24.5078 24.3418C24.5078 26.4254 25.319 28.3818 26.7897 29.8579C29.8264 32.8984 34.7676 32.8984 37.8043 29.8579C40.8375 26.8138 40.8375 21.8663 37.8008 18.8258Z" fill="#6F00FF"/>
<path d="M79.5745 45.283C79.6451 45.389 79.6133 45.5302 79.5075 45.6009L77.3208 47.0381C77.215 47.1088 77.074 47.077 77.0034 46.971L73.8151 42.1083C73.7445 42.0024 73.7763 41.8611 73.8821 41.7905L76.0688 40.3532C76.1746 40.2826 76.3157 40.3144 76.3862 40.4203L79.5745 45.283Z" fill="#FFB900"/>
<path d="M73.2923 37.121L72.0273 37.9524L74.3481 41.4921L75.613 40.6607L73.2923 37.121Z" fill="#FFB900"/>
<path d="M24.6895 8.77201C24.0511 7.91742 22.8555 7.69494 21.9491 8.28468C21.0427 8.87442 20.764 10.061 21.2825 10.9897L26.3789 17.6711C26.721 17.3957 27.772 16.587 28.7102 16.2409L24.6895 8.77201Z" fill="#FFB900"/>
</g>
<defs>
<clipPath id="clip0_207_12130">
<rect width="120" height="47.0769" fill="white"/>
</clipPath>
</defs>
</svg>
